<svg xmlns="http://www.w3.org/2000/svg">
    <defs>
        <symbol id="user" viewBox="0 0 24 24">
            <g>
                <circle cx="12" cy="6" r="4"/>
                <path d="M20 17.5C20 19.9853 20 22 12 22C4 22 4 19.9853 4 17.5C4 15.0147 7.58172 13 12 13C16.4183 13 20 15.0147 20 17.5Z"/>
            </g>
        </symbol>
        <symbol id="email" viewBox="0 0 24 24">
            <g>
                <path d="M9.5 20V22C9.5 22.4142 9.83579 22.75 10.25 22.75C10.6642 22.75 11 22.4142 11 22V20H9.5Z" />
                <path d="M15 20H13.5V22C13.5 22.4142 13.8358 22.75 14.25 22.75C14.6642 22.75 15 22.4142 15 22V20Z" />
                <path fill-rule="evenodd" clip-rule="evenodd" d="M17.3846 6.58471L17.6407 6.53344C18.0564 6.45022 18.4863 6.48995 18.8814 6.64813C19.5717 6.92453 20.3266 6.97616 21.0458 6.79618L21.1073 6.7808C21.6309 6.64975 22 6.16299 22 5.60336V3.47284C22 2.73503 21.3358 2.19145 20.6454 2.36421C20.249 2.46342 19.8329 2.43496 19.4523 2.28261L19.3793 2.25335C18.7422 1.99828 18.0491 1.93421 17.3787 2.06841L16.93 2.15824C16.3901 2.26632 16 2.75722 16 3.32846V10.2807C16 10.678 16.31 11 16.6923 11C17.0747 11 17.3846 10.678 17.3846 10.2807V6.58471Z"/>
                <path d="M14.5 6V10.2807C14.5 11.4518 15.428 12.5 16.6923 12.5C17.9566 12.5 18.8846 11.4518 18.8846 10.2807V8.22795C19.6455 8.43335 20.4446 8.45735 21.22 8.29496C21.7122 9.13671 22 10.1541 22 11.25V17.4253C22 18.8473 21.0119 20 19.7931 20H12.5V11.25C12.5 9.22014 11.6679 7.27604 10.2826 6H14.5Z"/>
                <path fill-rule="evenodd" clip-rule="evenodd" d="M2 11.25C2 8.35051 4.01472 6 6.5 6C8.98528 6 11 8.35051 11 11.25V20H4.23256C2.99955 20 2 18.8339 2 17.3953V11.25ZM4.25 16C4.25 15.5858 4.58579 15.25 5 15.25H8C8.41421 15.25 8.75 15.5858 8.75 16C8.75 16.4142 8.41421 16.75 8 16.75H5C4.58579 16.75 4.25 16.4142 4.25 16Z"/>
            </g>
        </symbol>
        <symbol id="password" viewBox="0 0 24 24">
            <g>
                <path fill-rule="evenodd" clip-rule="evenodd" d="M5.25 10.0546V8C5.25 4.27208 8.27208 1.25 12 1.25C15.7279 1.25 18.75 4.27208 18.75 8V10.0546C19.8648 10.1379 20.5907 10.348 21.1213 10.8787C22 11.7574 22 13.1716 22 16C22 18.8284 22 20.2426 21.1213 21.1213C20.2426 22 18.8284 22 16 22H8C5.17157 22 3.75736 22 2.87868 21.1213C2 20.2426 2 18.8284 2 16C2 13.1716 2 11.7574 2.87868 10.8787C3.40931 10.348 4.13525 10.1379 5.25 10.0546ZM6.75 8C6.75 5.10051 9.10051 2.75 12 2.75C14.8995 2.75 17.25 5.10051 17.25 8V10.0036C16.867 10 16.4515 10 16 10H8C7.54849 10 7.13301 10 6.75 10.0036V8ZM8 17C8.55228 17 9 16.5523 9 16C9 15.4477 8.55228 15 8 15C7.44772 15 7 15.4477 7 16C7 16.5523 7.44772 17 8 17ZM12 17C12.5523 17 13 16.5523 13 16C13 15.4477 12.5523 15 12 15C11.4477 15 11 15.4477 11 16C11 16.5523 11.4477 17 12 17ZM17 16C17 16.5523 16.5523 17 16 17C15.4477 17 15 16.5523 15 16C15 15.4477 15.4477 15 16 15C16.5523 15 17 15.4477 17 16Z" />
            </g>
        </symbol>
        <symbol id="eyeOpen" viewBox="0 0 24 24">
            <g>
                <path d="M9.75 12C9.75 10.7574 10.7574 9.75 12 9.75C13.2426 9.75 14.25 10.7574 14.25 12C14.25 13.2426 13.2426 14.25 12 14.25C10.7574 14.25 9.75 13.2426 9.75 12Z"/>
                <path fill-rule="evenodd" clip-rule="evenodd" d="M2 12C2 13.6394 2.42496 14.1915 3.27489 15.2957C4.97196 17.5004 7.81811 20 12 20C16.1819 20 19.028 17.5004 20.7251 15.2957C21.575 14.1915 22 13.6394 22 12C22 10.3606 21.575 9.80853 20.7251 8.70433C19.028 6.49956 16.1819 4 12 4C7.81811 4 4.97196 6.49956 3.27489 8.70433C2.42496 9.80853 2 10.3606 2 12ZM12 8.25C9.92893 8.25 8.25 9.92893 8.25 12C8.25 14.0711 9.92893 15.75 12 15.75C14.0711 15.75 15.75 14.0711 15.75 12C15.75 9.92893 14.0711 8.25 12 8.25Z"/>
            </g>
        </symbol>
        <symbol id="eyeClosed" viewBox="0 0 24 24">
            <g>
                <path fill-rule="evenodd" clip-rule="evenodd" d="M1.60603 6.08062C2.11366 5.86307 2.70154 6.09822 2.9191 6.60585L1.99995 6.99977C2.9191 6.60585 2.91924 6.60618 2.9191 6.60585L2.91858 6.60465C2.9183 6.604 2.91851 6.60447 2.91858 6.60465L2.9225 6.61351C2.92651 6.62253 2.93339 6.63785 2.94319 6.65905C2.96278 6.70147 2.99397 6.76735 3.03696 6.85334C3.12302 7.02546 3.25594 7.27722 3.43737 7.58203C3.80137 8.19355 4.35439 9.00801 5.10775 9.81932C5.28532 10.0105 5.47324 10.2009 5.67173 10.3878C5.68003 10.3954 5.68823 10.4031 5.69633 10.4109C7.18102 11.8012 9.25227 12.9998 12 12.9998C13.2089 12.9998 14.2783 12.769 15.2209 12.398C16.4469 11.9154 17.4745 11.1889 18.3156 10.3995C19.2652 9.50815 19.9627 8.54981 20.4232 7.81076C20.6526 7.44268 20.8207 7.13295 20.9299 6.91886C20.9844 6.81192 21.0241 6.72919 21.0491 6.67538C21.0617 6.64848 21.0706 6.62884 21.0758 6.61704L21.0808 6.60585C21.2985 6.0985 21.8864 5.86312 22.3939 6.08062C22.9015 6.29818 23.1367 6.88606 22.9191 7.39369L22 6.99977C22.9191 7.39369 22.9192 7.39346 22.9191 7.39369L22.9169 7.39871L22.9134 7.40693L22.9019 7.43278C22.8924 7.4541 22.879 7.48354 22.8618 7.52048C22.8274 7.59434 22.7774 7.69831 22.7115 7.8275C22.5799 8.08566 22.384 8.44584 22.1206 8.86844C21.718 9.5146 21.152 10.316 20.4096 11.1241L21.2071 11.9215C21.5976 12.312 21.5976 12.9452 21.2071 13.3357C20.8165 13.7262 20.1834 13.7262 19.7928 13.3357L18.9527 12.4955C18.3884 12.9513 17.757 13.3811 17.0558 13.752L17.8381 14.9544C18.1393 15.4173 18.0083 16.0367 17.5453 16.338C17.0824 16.6392 16.463 16.5081 16.1618 16.0452L15.1763 14.5306C14.4973 14.7388 13.772 14.8863 13 14.9554V16.4998C13 17.0521 12.5522 17.4998 12 17.4998C11.4477 17.4998 11 17.0521 11 16.4998V14.9556C10.2253 14.8864 9.50014 14.7386 8.82334 14.531L7.83814 16.0452C7.53693 16.5081 6.91748 16.6392 6.45457 16.338C5.99165 16.0367 5.86056 15.4173 6.16177 14.9544L6.94417 13.7519C6.24405 13.3814 5.61245 12.9515 5.04746 12.4953L4.20706 13.3357C3.81654 13.7262 3.18337 13.7262 2.79285 13.3357C2.40232 12.9452 2.40232 12.312 2.79285 11.9215L3.59029 11.1241C2.74529 10.2043 2.12772 9.292 1.71879 8.605C1.5096 8.25356 1.35345 7.95845 1.2481 7.74776C1.19539 7.64234 1.15529 7.55783 1.12752 7.49771C1.11363 7.46765 1.10282 7.44366 1.09505 7.42618L1.08566 7.4049L1.08267 7.39801L1.0816 7.39553L1.08117 7.39453C1.08098 7.39409 1.08081 7.39369 1.99995 6.99977L1.08117 7.39453C0.863613 6.8869 1.0984 6.29818 1.60603 6.08062Z"/>
            </g>
        </symbol>
    </defs>
</svg>